<svg xmlns="http://www.w3.org/2000/svg" xmlns:xlink="http://www.w3.org/1999/xlink" contentStyleType="text/css" height="193px" preserveAspectRatio="none" style="width:764px;height:193px;background:#FFFFFF;" version="1.1" viewBox="0 0 764 193" width="764px" zoomAndPan="magnify">
  <defs />
  <g>
    <g id="elem_creator">
      <ellipse cx="224.5" cy="14" fill="#F1F1F1" rx="8" ry="8" style="stroke:#181818;stroke-width:0.5;" />
      <path d="M224.5,22 L224.5,49 M211.5,30 L237.5,30 M224.5,49 L211.5,64 M224.5,49 L237.5,64" fill="none" style="stroke:#181818;stroke-width:0.5;" />
      <text fill="#000000" font-family="sans-serif" font-size="14" lengthAdjust="spacing" textLength="148" x="150.5" y="80.0332">Imaging Report Creator</text>
    </g>
    <g id="elem_consumer">
      <ellipse cx="511.5" cy="14" fill="#F1F1F1" rx="8" ry="8" style="stroke:#181818;stroke-width:0.5;" />
      <path d="M511.5,22 L511.5,49 M498.5,30 L524.5,30 M511.5,49 L498.5,64 M511.5,49 L524.5,64" fill="none" style="stroke:#181818;stroke-width:0.5;" />
      <text fill="#000000" font-family="sans-serif" font-size="14" lengthAdjust="spacing" textLength="165" x="429" y="80.0332">Imaging Report Consumer</text>
    </g>
    <g id="elem_create">
      <ellipse cx="79.376" cy="165.5752" fill="#F1F1F1" rx="73.376" ry="17.0752" style="stroke:#181818;stroke-width:0.5;" />
      <text fill="#000000" font-family="sans-serif" font-size="14" lengthAdjust="spacing" textLength="97" x="27.876" y="170.0918">Create a report</text>
    </g>
    <g id="elem_use">
      <ellipse cx="462.2537" cy="165.2507" fill="#F1F1F1" rx="66.7537" ry="15.7507" style="stroke:#181818;stroke-width:0.5;" />
      <text fill="#000000" font-family="sans-serif" font-size="14" lengthAdjust="spacing" textLength="78" x="420.2537" y="169.7673">Use a report</text>
    </g>
    <g id="elem_save">
      <ellipse cx="273.3478" cy="165.3696" fill="#F1F1F1" rx="84.8478" ry="19.3696" style="stroke:#181818;stroke-width:0.5;" />
      <text fill="#000000" font-family="sans-serif" font-size="14" lengthAdjust="spacing" textLength="126" x="210.3478" y="169.0981">Close/Save a report</text>
    </g>
    <g id="elem_receive">
      <ellipse cx="661.4525" cy="165.2905" fill="#F1F1F1" rx="96.9525" ry="21.7905" style="stroke:#181818;stroke-width:0.5;" />
      <text fill="#000000" font-family="sans-serif" font-size="14" lengthAdjust="spacing" textLength="154" x="584.4525" y="169.019">Search/Receive a report</text>
    </g>
    <g id="link_creator_create">
      <path d="M177.82,83.81 C152.52,104.57 122.39,129.3 102.21,145.86" fill="none" id="creator-to-create" style="stroke:#181818;stroke-width:1.0;" />
      <polygon fill="#181818" points="98.31,149.06,107.807,146.451,102.1779,145.8915,102.7374,140.2624,98.31,149.06" style="stroke:#181818;stroke-width:1.0;" />
    </g>
    <g id="link_creator_save">
      <path d="M240.27,83.81 C248.03,102.65 257.13,124.75 263.85,141.06" fill="none" id="creator-to-save" style="stroke:#181818;stroke-width:1.0;" />
      <polygon fill="#181818" points="265.85,145.92,266.122,136.0749,263.9463,141.2966,258.7245,139.1209,265.85,145.92" style="stroke:#181818;stroke-width:1.0;" />
    </g>
    <g id="link_consumer_use">
      <path d="M495.73,83.81 C487.41,104 477.55,127.95 470.74,144.48" fill="none" id="consumer-to-use" style="stroke:#181818;stroke-width:1.0;" />
      <polygon fill="#181818" points="468.73,149.36,475.8481,142.5532,470.6287,144.7345,468.4473,139.5152,468.73,149.36" style="stroke:#181818;stroke-width:1.0;" />
    </g>
    <g id="link_consumer_receive">
      <path d="M559.79,83.81 C583.55,102.66 611.44,124.78 631.99,141.09" fill="none" id="consumer-to-receive" style="stroke:#181818;stroke-width:1.0;" />
      <polygon fill="#181818" points="636,144.27,631.428,135.5466,632.0804,141.1658,626.4612,141.8181,636,144.27" style="stroke:#181818;stroke-width:1.0;" />
    </g>
  </g>
</svg>